<mxfile host="app.diagrams.net" modified="2021-05-28T19:07:33.469Z" agent="5.0 (Windows NT 10.0; Win64; x64) AppleWebKit/537.36 (KHTML, like Gecko) Chrome/90.0.4430.212 Safari/537.36" etag="hKNV5Ev-kq_9bFpHxJ0t" version="14.7.2" type="github">
  <diagram id="WFFXcrMp-PiCFahsQSqo" name="Page-1">
    <mxGraphModel dx="868" dy="482" grid="1" gridSize="10" guides="1" tooltips="1" connect="1" arrows="1" fold="1" page="1" pageScale="1" pageWidth="850" pageHeight="1100" math="1" shadow="0">
      <root>
        <mxCell id="0" />
        <mxCell id="1" parent="0" />
        <mxCell id="zxuzrYDHCOBBWx1caKwt-40" value="" style="endArrow=classic;html=1;exitX=0.138;exitY=-0.091;exitDx=0;exitDy=0;exitPerimeter=0;" edge="1" parent="1">
          <mxGeometry width="50" height="50" relative="1" as="geometry">
            <mxPoint x="339.8299999999999" y="78" as="sourcePoint" />
            <mxPoint x="339.75" y="52.25" as="targetPoint" />
          </mxGeometry>
        </mxCell>
        <mxCell id="zxuzrYDHCOBBWx1caKwt-38" value="" style="endArrow=classic;html=1;exitX=0.138;exitY=-0.091;exitDx=0;exitDy=0;exitPerimeter=0;" edge="1" parent="1">
          <mxGeometry width="50" height="50" relative="1" as="geometry">
            <mxPoint x="290.0799999999999" y="135" as="sourcePoint" />
            <mxPoint x="290" y="113.25" as="targetPoint" />
          </mxGeometry>
        </mxCell>
        <mxCell id="zxuzrYDHCOBBWx1caKwt-34" value="" style="endArrow=classic;html=1;exitX=0.138;exitY=-0.091;exitDx=0;exitDy=0;exitPerimeter=0;" edge="1" parent="1">
          <mxGeometry width="50" height="50" relative="1" as="geometry">
            <mxPoint x="394.0799999999999" y="222" as="sourcePoint" />
            <mxPoint x="394" y="190.5" as="targetPoint" />
          </mxGeometry>
        </mxCell>
        <mxCell id="zxuzrYDHCOBBWx1caKwt-5" value="" style="endArrow=classic;html=1;" edge="1" parent="1">
          <mxGeometry width="50" height="50" relative="1" as="geometry">
            <mxPoint x="86.75" y="70" as="sourcePoint" />
            <mxPoint x="86.75" y="110" as="targetPoint" />
          </mxGeometry>
        </mxCell>
        <mxCell id="zxuzrYDHCOBBWx1caKwt-10" value="" style="endArrow=classic;html=1;" edge="1" parent="1">
          <mxGeometry width="50" height="50" relative="1" as="geometry">
            <mxPoint x="86.5" y="161" as="sourcePoint" />
            <mxPoint x="86.5" y="201" as="targetPoint" />
          </mxGeometry>
        </mxCell>
        <mxCell id="zxuzrYDHCOBBWx1caKwt-14" value="" style="endArrow=classic;html=1;" edge="1" parent="1">
          <mxGeometry width="50" height="50" relative="1" as="geometry">
            <mxPoint x="86.5" y="254" as="sourcePoint" />
            <mxPoint x="86.5" y="294" as="targetPoint" />
          </mxGeometry>
        </mxCell>
        <mxCell id="zxuzrYDHCOBBWx1caKwt-29" value="" style="endArrow=classic;html=1;" edge="1" parent="1">
          <mxGeometry width="50" height="50" relative="1" as="geometry">
            <mxPoint x="325.5" y="255" as="sourcePoint" />
            <mxPoint x="325.5" y="295" as="targetPoint" />
          </mxGeometry>
        </mxCell>
        <mxCell id="zxuzrYDHCOBBWx1caKwt-2" value="" style="rounded=0;whiteSpace=wrap;html=1;dashed=1;strokeWidth=3;fillColor=none;strokeColor=#1EB6FF;" vertex="1" parent="1">
          <mxGeometry x="10" y="20" width="160" height="50" as="geometry" />
        </mxCell>
        <mxCell id="zxuzrYDHCOBBWx1caKwt-3" value="EC signal" style="text;html=1;strokeColor=none;fillColor=none;align=center;verticalAlign=middle;whiteSpace=wrap;rounded=0;dashed=1;" vertex="1" parent="1">
          <mxGeometry x="45" y="50" width="70" height="20" as="geometry" />
        </mxCell>
        <mxCell id="zxuzrYDHCOBBWx1caKwt-4" value="" style="shape=image;html=1;verticalAlign=top;verticalLabelPosition=bottom;labelBackgroundColor=#ffffff;imageAspect=0;aspect=fixed;image=https://cdn2.iconfinder.com/data/icons/essential-web-5/50/pulse-activity-vital-wave-signal-128.png;dashed=1;strokeColor=#00FFFF;strokeWidth=2;" vertex="1" parent="1">
          <mxGeometry x="60" y="21" width="38" height="38" as="geometry" />
        </mxCell>
        <mxCell id="zxuzrYDHCOBBWx1caKwt-6" value="" style="rounded=0;whiteSpace=wrap;html=1;dashed=1;strokeWidth=3;fillColor=none;strokeColor=#1EB6FF;" vertex="1" parent="1">
          <mxGeometry x="10" y="111" width="160" height="50" as="geometry" />
        </mxCell>
        <mxCell id="zxuzrYDHCOBBWx1caKwt-7" value="&lt;font style=&quot;font-size: 14px&quot;&gt;Pre-processing&lt;/font&gt;" style="text;html=1;strokeColor=none;fillColor=none;align=center;verticalAlign=middle;whiteSpace=wrap;rounded=0;dashed=1;" vertex="1" parent="1">
          <mxGeometry x="36.5" y="111" width="103.5" height="20" as="geometry" />
        </mxCell>
        <mxCell id="zxuzrYDHCOBBWx1caKwt-8" value="Reduce data granlurity" style="text;html=1;strokeColor=none;fillColor=none;align=center;verticalAlign=middle;whiteSpace=wrap;rounded=0;dashed=1;" vertex="1" parent="1">
          <mxGeometry x="22" y="131" width="130" height="20" as="geometry" />
        </mxCell>
        <mxCell id="zxuzrYDHCOBBWx1caKwt-9" value="" style="rounded=0;whiteSpace=wrap;html=1;dashed=1;strokeWidth=3;fillColor=none;strokeColor=#1EB6FF;" vertex="1" parent="1">
          <mxGeometry x="9" y="204" width="160" height="50" as="geometry" />
        </mxCell>
        <mxCell id="zxuzrYDHCOBBWx1caKwt-11" value="&lt;font style=&quot;font-size: 14px&quot;&gt;Apply theft cases&lt;/font&gt;" style="text;html=1;strokeColor=none;fillColor=none;align=center;verticalAlign=middle;whiteSpace=wrap;rounded=0;dashed=1;" vertex="1" parent="1">
          <mxGeometry x="32.5" y="204" width="113.5" height="20" as="geometry" />
        </mxCell>
        <mxCell id="zxuzrYDHCOBBWx1caKwt-12" value="generate malicious samples" style="text;html=1;strokeColor=none;fillColor=none;align=center;verticalAlign=middle;whiteSpace=wrap;rounded=0;dashed=1;" vertex="1" parent="1">
          <mxGeometry x="36.5" y="227" width="111.75" height="20" as="geometry" />
        </mxCell>
        <mxCell id="zxuzrYDHCOBBWx1caKwt-13" value="" style="rounded=0;whiteSpace=wrap;html=1;dashed=1;strokeWidth=3;fillColor=none;strokeColor=#1EB6FF;" vertex="1" parent="1">
          <mxGeometry x="10.38" y="297" width="160" height="33" as="geometry" />
        </mxCell>
        <mxCell id="zxuzrYDHCOBBWx1caKwt-15" value="Classification" style="text;html=1;strokeColor=none;fillColor=none;align=center;verticalAlign=middle;whiteSpace=wrap;rounded=0;dashed=1;" vertex="1" parent="1">
          <mxGeometry x="45" y="303.5" width="80" height="20" as="geometry" />
        </mxCell>
        <mxCell id="zxuzrYDHCOBBWx1caKwt-16" value="" style="rounded=0;whiteSpace=wrap;html=1;dashed=1;strokeWidth=3;fillColor=none;strokeColor=#1EB6FF;" vertex="1" parent="1">
          <mxGeometry x="250" y="297" width="160" height="33" as="geometry" />
        </mxCell>
        <mxCell id="zxuzrYDHCOBBWx1caKwt-17" value="" style="rounded=0;whiteSpace=wrap;html=1;dashed=1;strokeWidth=3;fillColor=none;strokeColor=#1EB6FF;" vertex="1" parent="1">
          <mxGeometry x="250" y="223" width="160" height="33" as="geometry" />
        </mxCell>
        <mxCell id="zxuzrYDHCOBBWx1caKwt-18" value="Classification" style="text;html=1;strokeColor=none;fillColor=none;align=center;verticalAlign=middle;whiteSpace=wrap;rounded=0;dashed=1;" vertex="1" parent="1">
          <mxGeometry x="290" y="303.5" width="80" height="20" as="geometry" />
        </mxCell>
        <mxCell id="zxuzrYDHCOBBWx1caKwt-19" value="Feature generation" style="text;html=1;strokeColor=none;fillColor=none;align=center;verticalAlign=middle;whiteSpace=wrap;rounded=0;dashed=1;" vertex="1" parent="1">
          <mxGeometry x="271" y="227.5" width="110" height="20" as="geometry" />
        </mxCell>
        <mxCell id="zxuzrYDHCOBBWx1caKwt-22" value="" style="endArrow=none;html=1;exitX=0.998;exitY=0.394;exitDx=0;exitDy=0;exitPerimeter=0;startArrow=none;" edge="1" parent="1" source="zxuzrYDHCOBBWx1caKwt-24">
          <mxGeometry width="50" height="50" relative="1" as="geometry">
            <mxPoint x="170.05999999999995" y="312.00199999999995" as="sourcePoint" />
            <mxPoint x="220" y="312" as="targetPoint" />
          </mxGeometry>
        </mxCell>
        <mxCell id="zxuzrYDHCOBBWx1caKwt-23" value="" style="endArrow=none;html=1;" edge="1" parent="1">
          <mxGeometry width="50" height="50" relative="1" as="geometry">
            <mxPoint x="220" y="313" as="sourcePoint" />
            <mxPoint x="220" y="239" as="targetPoint" />
          </mxGeometry>
        </mxCell>
        <mxCell id="zxuzrYDHCOBBWx1caKwt-24" value="" style="ellipse;whiteSpace=wrap;html=1;aspect=fixed;strokeWidth=1;fillColor=#000000;" vertex="1" parent="1">
          <mxGeometry x="215" y="308.5" width="10" height="10" as="geometry" />
        </mxCell>
        <mxCell id="zxuzrYDHCOBBWx1caKwt-26" value="" style="endArrow=none;html=1;" edge="1" parent="1" target="zxuzrYDHCOBBWx1caKwt-24">
          <mxGeometry width="50" height="50" relative="1" as="geometry">
            <mxPoint x="170" y="313" as="sourcePoint" />
            <mxPoint x="220" y="312" as="targetPoint" />
          </mxGeometry>
        </mxCell>
        <mxCell id="zxuzrYDHCOBBWx1caKwt-27" value="" style="endArrow=classic;html=1;endFill=1;" edge="1" parent="1">
          <mxGeometry width="50" height="50" relative="1" as="geometry">
            <mxPoint x="220" y="240" as="sourcePoint" />
            <mxPoint x="250.00024998124684" y="240.4500024998125" as="targetPoint" />
          </mxGeometry>
        </mxCell>
        <mxCell id="zxuzrYDHCOBBWx1caKwt-28" value="" style="ellipse;whiteSpace=wrap;html=1;aspect=fixed;strokeWidth=1;fillColor=#000000;" vertex="1" parent="1">
          <mxGeometry x="215" y="235.5" width="10" height="10" as="geometry" />
        </mxCell>
        <mxCell id="zxuzrYDHCOBBWx1caKwt-30" value="Feature selection by GA" style="rounded=0;whiteSpace=wrap;html=1;dashed=1;strokeWidth=3;fillColor=none;strokeColor=#1EB6FF;" vertex="1" parent="1">
          <mxGeometry x="210" y="136" width="100" height="52.5" as="geometry" />
        </mxCell>
        <mxCell id="zxuzrYDHCOBBWx1caKwt-31" value="Feature selection by ABC" style="rounded=0;whiteSpace=wrap;html=1;dashed=1;strokeWidth=3;fillColor=none;strokeColor=#1EB6FF;" vertex="1" parent="1">
          <mxGeometry x="360" y="136" width="100" height="52.5" as="geometry" />
        </mxCell>
        <mxCell id="zxuzrYDHCOBBWx1caKwt-35" value="Select features with highest F1-socre" style="rounded=0;whiteSpace=wrap;html=1;dashed=1;strokeWidth=3;fillColor=none;strokeColor=#1EB6FF;" vertex="1" parent="1">
          <mxGeometry x="225" y="20" width="210" height="33" as="geometry" />
        </mxCell>
        <mxCell id="zxuzrYDHCOBBWx1caKwt-36" value="" style="endArrow=classic;html=1;exitX=0.138;exitY=-0.091;exitDx=0;exitDy=0;exitPerimeter=0;" edge="1" parent="1">
          <mxGeometry width="50" height="50" relative="1" as="geometry">
            <mxPoint x="283.0799999999999" y="223" as="sourcePoint" />
            <mxPoint x="283" y="191.5" as="targetPoint" />
          </mxGeometry>
        </mxCell>
        <mxCell id="zxuzrYDHCOBBWx1caKwt-37" value="Classification" style="rounded=0;whiteSpace=wrap;html=1;dashed=1;strokeWidth=3;fillColor=none;strokeColor=#1EB6FF;" vertex="1" parent="1">
          <mxGeometry x="260" y="78" width="160" height="33" as="geometry" />
        </mxCell>
        <mxCell id="zxuzrYDHCOBBWx1caKwt-39" value="" style="endArrow=classic;html=1;exitX=0.138;exitY=-0.091;exitDx=0;exitDy=0;exitPerimeter=0;" edge="1" parent="1">
          <mxGeometry width="50" height="50" relative="1" as="geometry">
            <mxPoint x="364.0799999999999" y="136" as="sourcePoint" />
            <mxPoint x="364" y="114.25" as="targetPoint" />
          </mxGeometry>
        </mxCell>
        <mxCell id="zxuzrYDHCOBBWx1caKwt-41" value="Features extraction by denoising autoencoder" style="rounded=0;whiteSpace=wrap;html=1;dashed=1;strokeWidth=3;fillColor=none;strokeColor=#1EB6FF;" vertex="1" parent="1">
          <mxGeometry x="505" y="17" width="210" height="43" as="geometry" />
        </mxCell>
        <mxCell id="zxuzrYDHCOBBWx1caKwt-42" value="Tune hyperparameters" style="rounded=0;whiteSpace=wrap;html=1;dashed=1;strokeWidth=3;fillColor=none;strokeColor=#1EB6FF;" vertex="1" parent="1">
          <mxGeometry x="525" y="98.5" width="170" height="32.5" as="geometry" />
        </mxCell>
        <mxCell id="zxuzrYDHCOBBWx1caKwt-43" value="Classification" style="rounded=0;whiteSpace=wrap;html=1;dashed=1;strokeWidth=3;fillColor=none;strokeColor=#1EB6FF;" vertex="1" parent="1">
          <mxGeometry x="550" y="171" width="120" height="33" as="geometry" />
        </mxCell>
      </root>
    </mxGraphModel>
  </diagram>
</mxfile>
